# Blender v3.1.2 OBJ File: ''
# www.blender.org
mtllib simple leaf.mtl
o Sphere
v 0.000000 0.707107 -0.707107
v 0.000000 0.382683 -0.923880
v 0.000000 -0.382683 -0.923880
v 0.000000 -0.923880 -0.382683
v 0.146447 0.923880 -0.353553
v 0.270598 0.707107 -0.653281
v 0.353553 0.382683 -0.853553
v 0.382683 -0.000000 -0.923880
v 0.353553 -0.382683 -0.853553
v 0.270598 -0.707107 -0.653281
v 0.146447 -0.923880 -0.353553
v 0.270598 0.923880 -0.270598
v 0.500000 0.707107 -0.500000
v 0.653282 0.382683 -0.653281
v 0.707107 -0.000000 -0.707107
v 0.653282 -0.382683 -0.653281
v 0.500000 -0.707107 -0.500000
v 0.270598 -0.923880 -0.270598
v 0.353554 0.923880 -0.146447
v 0.653282 0.707107 -0.270598
v 0.853554 0.382683 -0.353553
v 0.923880 -0.000000 -0.382683
v 0.853554 -0.382683 -0.353553
v 0.653282 -0.707107 -0.270598
v 0.353554 -0.923880 -0.146447
v 0.382684 0.923880 0.000000
v 0.707107 0.707107 0.000000
v 0.923880 0.382683 0.000000
v 1.000000 -0.000000 0.000000
v 0.923880 -0.382683 0.000000
v 0.707107 -0.707107 0.000000
v 0.382684 -0.923880 0.000000
v 0.353553 0.923880 0.146447
v 0.653282 0.707107 0.270598
v 0.853553 0.382683 0.353554
v 0.923879 -0.000000 0.382684
v 0.853553 -0.382683 0.353554
v 0.653282 -0.707107 0.270598
v 0.353553 -0.923880 0.146447
v 0.270598 0.923880 0.270598
v 0.500000 0.707107 0.500000
v 0.653281 0.382683 0.653282
v 0.707107 -0.000000 0.707107
v 0.653281 -0.382683 0.653282
v 0.500000 -0.707107 0.500000
v 0.270598 -0.923880 0.270598
v 0.146447 0.923880 0.353554
v 0.270598 0.707107 0.653282
v 0.353553 0.382683 0.853554
v 0.382683 -0.000000 0.923880
v 0.353553 -0.382683 0.853554
v 0.270598 -0.707107 0.653282
v 0.146447 -0.923880 0.353554
v -0.000000 1.000000 0.000000
v -0.000000 0.923880 0.382684
v -0.000000 0.707107 0.707107
v -0.000000 0.382683 0.923880
v -0.000000 -0.000000 1.000000
v -0.000000 -0.382683 0.923880
v -0.000000 -0.707107 0.707107
v -0.000000 -0.923880 0.382684
v -0.146447 0.923880 0.353553
v -0.270598 0.707107 0.653282
v -0.353554 0.382683 0.853553
v -0.382684 -0.000000 0.923880
v -0.353554 -0.382683 0.853553
v -0.270598 -0.707107 0.653282
v -0.146447 -0.923880 0.353553
v -0.270598 0.923880 0.270598
v -0.500000 0.707107 0.500000
v -0.653282 0.382683 0.653281
v -0.707107 -0.000000 0.707107
v -0.653282 -0.382683 0.653281
v -0.500000 -0.707107 0.500000
v -0.270598 -0.923880 0.270598
v 0.000000 -1.000000 0.000000
v -0.353553 0.923880 0.146447
v -0.653282 0.707107 0.270598
v -0.853553 0.382683 0.353553
v -0.923880 -0.000000 0.382683
v -0.853553 -0.382683 0.353553
v -0.653282 -0.707107 0.270598
v -0.353553 -0.923880 0.146447
v -0.382683 0.923880 -0.000000
v -0.707107 0.707107 -0.000000
v -0.923879 0.382683 -0.000000
v -1.000000 -0.000000 -0.000000
v -0.923879 -0.382683 -0.000000
v -0.707107 -0.707107 -0.000000
v -0.382683 -0.923880 -0.000000
v -0.353553 0.923880 -0.146447
v -0.653281 0.707107 -0.270598
v -0.853553 0.382683 -0.353554
v -0.923879 -0.000000 -0.382684
v -0.853553 -0.382683 -0.353554
v -0.653281 -0.707107 -0.270598
v -0.353553 -0.923880 -0.146447
v -0.270598 0.923880 -0.270598
v -0.500000 0.707107 -0.500000
v -0.653281 0.382683 -0.653282
v -0.707106 -0.000000 -0.707107
v -0.653281 -0.382683 -0.653282
v -0.500000 -0.707107 -0.500000
v -0.270598 -0.923880 -0.270598
v -0.146446 0.923880 -0.353553
v -0.270598 0.707107 -0.653281
v -0.353553 0.382683 -0.853553
v -0.382683 -0.000000 -0.923880
v -0.353553 -0.382683 -0.853553
v -0.270598 -0.707107 -0.653281
v -0.146446 -0.923880 -0.353553
v 0.000000 0.923880 -0.382683
v 0.000001 -0.000000 -1.000000
v 0.000000 -0.707107 -0.707107
vt 0.750000 0.500000
vt 0.750000 0.625000
vt 0.687500 0.625000
vt 0.687500 0.500000
vt 0.750000 0.750000
vt 0.750000 0.875000
vt 0.687500 0.875000
vt 0.687500 0.750000
vt 0.750000 0.125000
vt 0.750000 0.250000
vt 0.687500 0.250000
vt 0.687500 0.125000
vt 0.750000 0.375000
vt 0.687500 0.375000
vt 0.718750 1.000000
vt 0.718750 0.000000
vt 0.625000 0.250000
vt 0.625000 0.125000
vt 0.625000 0.500000
vt 0.625000 0.375000
vt 0.625000 0.750000
vt 0.625000 0.625000
vt 0.656250 1.000000
vt 0.625000 0.875000
vt 0.656250 0.000000
vt 0.593750 1.000000
vt 0.562500 0.875000
vt 0.593750 0.000000
vt 0.562500 0.125000
vt 0.562500 0.375000
vt 0.562500 0.250000
vt 0.562500 0.625000
vt 0.562500 0.500000
vt 0.562500 0.750000
vt 0.500000 0.375000
vt 0.500000 0.250000
vt 0.500000 0.625000
vt 0.500000 0.500000
vt 0.500000 0.875000
vt 0.500000 0.750000
vt 0.500000 0.125000
vt 0.531250 1.000000
vt 0.531250 0.000000
vt 0.437500 0.250000
vt 0.437500 0.125000
vt 0.437500 0.500000
vt 0.437500 0.375000
vt 0.437500 0.750000
vt 0.437500 0.625000
vt 0.468750 1.000000
vt 0.437500 0.875000
vt 0.468750 0.000000
vt 0.375000 0.500000
vt 0.375000 0.375000
vt 0.375000 0.750000
vt 0.375000 0.625000
vt 0.406250 1.000000
vt 0.375000 0.875000
vt 0.406250 0.000000
vt 0.375000 0.125000
vt 0.375000 0.250000
vt 0.343750 0.000000
vt 0.312500 0.125000
vt 0.312500 0.375000
vt 0.312500 0.250000
vt 0.312500 0.625000
vt 0.312500 0.500000
vt 0.312500 0.875000
vt 0.312500 0.750000
vt 0.343750 1.000000
vt 0.250000 0.625000
vt 0.250000 0.500000
vt 0.250000 0.875000
vt 0.250000 0.750000
vt 0.250000 0.250000
vt 0.250000 0.125000
vt 0.250000 0.375000
vt 0.281250 1.000000
vt 0.281250 0.000000
vt 0.187500 0.250000
vt 0.187500 0.125000
vt 0.187500 0.500000
vt 0.187500 0.375000
vt 0.187500 0.750000
vt 0.187500 0.625000
vt 0.218750 1.000000
vt 0.187500 0.875000
vt 0.218750 0.000000
vt 0.125000 0.750000
vt 0.125000 0.625000
vt 0.156250 1.000000
vt 0.125000 0.875000
vt 0.156250 0.000000
vt 0.125000 0.125000
vt 0.125000 0.375000
vt 0.125000 0.250000
vt 0.125000 0.500000
vt 0.093750 0.000000
vt 0.062500 0.125000
vt 0.062500 0.375000
vt 0.062500 0.250000
vt 0.062500 0.625000
vt 0.062500 0.500000
vt 0.062500 0.875000
vt 0.062500 0.750000
vt 0.093750 1.000000
vt 0.000000 0.875000
vt 0.000000 0.750000
vt 0.000000 0.250000
vt 0.000000 0.125000
vt 0.000000 0.500000
vt 0.000000 0.375000
vt 0.000000 0.625000
vt 0.031250 1.000000
vt 0.031250 0.000000
vt 1.000000 0.125000
vt 1.000000 0.250000
vt 0.937500 0.250000
vt 0.937500 0.125000
vt 1.000000 0.375000
vt 1.000000 0.500000
vt 0.937500 0.500000
vt 0.937500 0.375000
vt 1.000000 0.625000
vt 1.000000 0.750000
vt 0.937500 0.750000
vt 0.937500 0.625000
vt 1.000000 0.875000
vt 0.968750 1.000000
vt 0.937500 0.875000
vt 0.968750 0.000000
vt 0.906250 1.000000
vt 0.875000 0.875000
vt 0.906250 0.000000
vt 0.875000 0.125000
vt 0.875000 0.375000
vt 0.875000 0.250000
vt 0.875000 0.625000
vt 0.875000 0.500000
vt 0.875000 0.750000
vt 0.812500 0.375000
vt 0.812500 0.250000
vt 0.812500 0.625000
vt 0.812500 0.500000
vt 0.812500 0.875000
vt 0.812500 0.750000
vt 0.812500 0.125000
vt 0.843750 1.000000
vt 0.843750 0.000000
vt 0.781250 1.000000
vt 0.781250 0.000000
vn 0.1915 0.1915 -0.9626
vn 0.1098 0.8264 -0.5522
vn 0.1098 -0.8264 -0.5522
vn 0.1915 -0.1915 -0.9626
vn 0.1632 0.5481 -0.8203
vn 0.0388 0.9800 -0.1949
vn 0.0388 -0.9800 -0.1949
vn 0.1632 -0.5481 -0.8203
vn 0.3128 -0.8264 -0.4681
vn 0.5453 -0.1915 -0.8161
vn 0.4647 0.5481 -0.6954
vn 0.1104 0.9800 -0.1653
vn 0.1104 -0.9800 -0.1653
vn 0.4647 -0.5481 -0.6954
vn 0.5453 0.1915 -0.8161
vn 0.3128 0.8264 -0.4681
vn 0.1653 0.9800 -0.1104
vn 0.1653 -0.9800 -0.1104
vn 0.6954 -0.5481 -0.4647
vn 0.8161 0.1915 -0.5453
vn 0.4681 0.8264 -0.3128
vn 0.4681 -0.8264 -0.3128
vn 0.8161 -0.1915 -0.5453
vn 0.6954 0.5481 -0.4647
vn 0.8203 -0.5481 -0.1632
vn 0.9626 0.1915 -0.1915
vn 0.5522 0.8264 -0.1098
vn 0.5522 -0.8264 -0.1098
vn 0.9626 -0.1915 -0.1915
vn 0.8203 0.5481 -0.1632
vn 0.1949 0.9800 -0.0388
vn 0.1949 -0.9800 -0.0388
vn 0.5522 -0.8264 0.1098
vn 0.9626 -0.1915 0.1915
vn 0.8203 0.5481 0.1632
vn 0.1949 0.9800 0.0388
vn 0.1949 -0.9800 0.0388
vn 0.8203 -0.5481 0.1632
vn 0.9626 0.1915 0.1915
vn 0.5522 0.8264 0.1098
vn 0.8161 -0.1915 0.5453
vn 0.6954 0.5481 0.4647
vn 0.1653 0.9800 0.1104
vn 0.1653 -0.9800 0.1104
vn 0.6954 -0.5481 0.4647
vn 0.8161 0.1915 0.5453
vn 0.4681 0.8264 0.3128
vn 0.4681 -0.8264 0.3128
vn 0.1104 -0.9800 0.1653
vn 0.4647 -0.5481 0.6954
vn 0.5453 0.1915 0.8161
vn 0.3128 0.8264 0.4681
vn 0.3128 -0.8264 0.4681
vn 0.5453 -0.1915 0.8161
vn 0.4647 0.5481 0.6954
vn 0.1104 0.9800 0.1653
vn 0.1915 0.1915 0.9626
vn 0.1098 0.8264 0.5522
vn 0.1098 -0.8264 0.5522
vn 0.1915 -0.1915 0.9626
vn 0.1632 0.5481 0.8203
vn 0.0388 0.9800 0.1949
vn 0.0388 -0.9800 0.1949
vn 0.1632 -0.5481 0.8203
vn -0.1098 -0.8264 0.5522
vn -0.1915 -0.1915 0.9626
vn -0.1632 0.5481 0.8203
vn -0.0388 0.9800 0.1949
vn -0.0388 -0.9800 0.1949
vn -0.1632 -0.5481 0.8203
vn -0.1915 0.1915 0.9626
vn -0.1098 0.8264 0.5522
vn -0.4647 0.5481 0.6954
vn -0.1104 0.9800 0.1653
vn -0.1104 -0.9800 0.1653
vn -0.4647 -0.5481 0.6954
vn -0.5453 0.1915 0.8161
vn -0.3128 0.8264 0.4681
vn -0.3128 -0.8264 0.4681
vn -0.5453 -0.1915 0.8161
vn -0.1653 -0.9800 0.1104
vn -0.6954 -0.5481 0.4647
vn -0.8161 0.1915 0.5453
vn -0.4681 0.8264 0.3128
vn -0.4681 -0.8264 0.3128
vn -0.8161 -0.1915 0.5453
vn -0.6954 0.5481 0.4647
vn -0.1653 0.9800 0.1104
vn -0.5522 0.8264 0.1098
vn -0.5522 -0.8264 0.1098
vn -0.9626 -0.1915 0.1915
vn -0.8203 0.5481 0.1632
vn -0.1949 0.9800 0.0388
vn -0.1949 -0.9800 0.0388
vn -0.8203 -0.5481 0.1632
vn -0.9626 0.1915 0.1915
vn -0.5522 -0.8264 -0.1098
vn -0.9626 -0.1915 -0.1915
vn -0.8203 0.5481 -0.1632
vn -0.1949 0.9800 -0.0388
vn -0.1949 -0.9800 -0.0388
vn -0.8203 -0.5481 -0.1632
vn -0.9626 0.1915 -0.1915
vn -0.5522 0.8264 -0.1098
vn -0.1653 0.9800 -0.1104
vn -0.1653 -0.9800 -0.1104
vn -0.6954 -0.5481 -0.4647
vn -0.8161 0.1915 -0.5453
vn -0.4681 0.8264 -0.3128
vn -0.4681 -0.8264 -0.3128
vn -0.8161 -0.1915 -0.5453
vn -0.6954 0.5481 -0.4647
vn -0.4647 -0.5481 -0.6954
vn -0.5453 0.1915 -0.8161
vn -0.3128 0.8264 -0.4681
vn -0.3128 -0.8264 -0.4681
vn -0.5453 -0.1915 -0.8161
vn -0.4647 0.5481 -0.6954
vn -0.1104 0.9800 -0.1653
vn -0.1104 -0.9800 -0.1653
vn -0.1098 -0.8264 -0.5522
vn -0.1915 -0.1915 -0.9626
vn -0.1632 0.5481 -0.8203
vn -0.0388 0.9800 -0.1949
vn -0.0388 -0.9800 -0.1949
vn -0.1632 -0.5481 -0.8203
vn -0.1915 0.1915 -0.9626
vn -0.1098 0.8264 -0.5522
usemtl None
s off
f 113/1/1 2/2/1 7/3/1 8/4/1
f 1/5/2 112/6/2 5/7/2 6/8/2
f 4/9/3 114/10/3 10/11/3 11/12/3
f 3/13/4 113/1/4 8/4/4 9/14/4
f 2/2/5 1/5/5 6/8/5 7/3/5
f 112/6/6 54/15/6 5/7/6
f 76/16/7 4/9/7 11/12/7
f 114/10/8 3/13/8 9/14/8 10/11/8
f 11/12/9 10/11/9 17/17/9 18/18/9
f 9/14/10 8/4/10 15/19/10 16/20/10
f 7/3/11 6/8/11 13/21/11 14/22/11
f 5/7/12 54/23/12 12/24/12
f 76/25/13 11/12/13 18/18/13
f 10/11/14 9/14/14 16/20/14 17/17/14
f 8/4/15 7/3/15 14/22/15 15/19/15
f 6/8/16 5/7/16 12/24/16 13/21/16
f 12/24/17 54/26/17 19/27/17
f 76/28/18 18/18/18 25/29/18
f 17/17/19 16/20/19 23/30/19 24/31/19
f 15/19/20 14/22/20 21/32/20 22/33/20
f 13/21/21 12/24/21 19/27/21 20/34/21
f 18/18/22 17/17/22 24/31/22 25/29/22
f 16/20/23 15/19/23 22/33/23 23/30/23
f 14/22/24 13/21/24 20/34/24 21/32/24
f 24/31/25 23/30/25 30/35/25 31/36/25
f 22/33/26 21/32/26 28/37/26 29/38/26
f 20/34/27 19/27/27 26/39/27 27/40/27
f 25/29/28 24/31/28 31/36/28 32/41/28
f 23/30/29 22/33/29 29/38/29 30/35/29
f 21/32/30 20/34/30 27/40/30 28/37/30
f 19/27/31 54/42/31 26/39/31
f 76/43/32 25/29/32 32/41/32
f 32/41/33 31/36/33 38/44/33 39/45/33
f 30/35/34 29/38/34 36/46/34 37/47/34
f 28/37/35 27/40/35 34/48/35 35/49/35
f 26/39/36 54/50/36 33/51/36
f 76/52/37 32/41/37 39/45/37
f 31/36/38 30/35/38 37/47/38 38/44/38
f 29/38/39 28/37/39 35/49/39 36/46/39
f 27/40/40 26/39/40 33/51/40 34/48/40
f 37/47/41 36/46/41 43/53/41 44/54/41
f 35/49/42 34/48/42 41/55/42 42/56/42
f 33/51/43 54/57/43 40/58/43
f 76/59/44 39/45/44 46/60/44
f 38/44/45 37/47/45 44/54/45 45/61/45
f 36/46/46 35/49/46 42/56/46 43/53/46
f 34/48/47 33/51/47 40/58/47 41/55/47
f 39/45/48 38/44/48 45/61/48 46/60/48
f 76/62/49 46/60/49 53/63/49
f 45/61/50 44/54/50 51/64/50 52/65/50
f 43/53/51 42/56/51 49/66/51 50/67/51
f 41/55/52 40/58/52 47/68/52 48/69/52
f 46/60/53 45/61/53 52/65/53 53/63/53
f 44/54/54 43/53/54 50/67/54 51/64/54
f 42/56/55 41/55/55 48/69/55 49/66/55
f 40/58/56 54/70/56 47/68/56
f 50/67/57 49/66/57 57/71/57 58/72/57
f 48/69/58 47/68/58 55/73/58 56/74/58
f 53/63/59 52/65/59 60/75/59 61/76/59
f 51/64/60 50/67/60 58/72/60 59/77/60
f 49/66/61 48/69/61 56/74/61 57/71/61
f 47/68/62 54/78/62 55/73/62
f 76/79/63 53/63/63 61/76/63
f 52/65/64 51/64/64 59/77/64 60/75/64
f 61/76/65 60/75/65 67/80/65 68/81/65
f 59/77/66 58/72/66 65/82/66 66/83/66
f 57/71/67 56/74/67 63/84/67 64/85/67
f 55/73/68 54/86/68 62/87/68
f 76/88/69 61/76/69 68/81/69
f 60/75/70 59/77/70 66/83/70 67/80/70
f 58/72/71 57/71/71 64/85/71 65/82/71
f 56/74/72 55/73/72 62/87/72 63/84/72
f 64/85/73 63/84/73 70/89/73 71/90/73
f 62/87/74 54/91/74 69/92/74
f 76/93/75 68/81/75 75/94/75
f 67/80/76 66/83/76 73/95/76 74/96/76
f 65/82/77 64/85/77 71/90/77 72/97/77
f 63/84/78 62/87/78 69/92/78 70/89/78
f 68/81/79 67/80/79 74/96/79 75/94/79
f 66/83/80 65/82/80 72/97/80 73/95/80
f 76/98/81 75/94/81 83/99/81
f 74/96/82 73/95/82 81/100/82 82/101/82
f 72/97/83 71/90/83 79/102/83 80/103/83
f 70/89/84 69/92/84 77/104/84 78/105/84
f 75/94/85 74/96/85 82/101/85 83/99/85
f 73/95/86 72/97/86 80/103/86 81/100/86
f 71/90/87 70/89/87 78/105/87 79/102/87
f 69/92/88 54/106/88 77/104/88
f 78/105/89 77/104/89 84/107/89 85/108/89
f 83/99/90 82/101/90 89/109/90 90/110/90
f 81/100/91 80/103/91 87/111/91 88/112/91
f 79/102/92 78/105/92 85/108/92 86/113/92
f 77/104/93 54/114/93 84/107/93
f 76/115/94 83/99/94 90/110/94
f 82/101/95 81/100/95 88/112/95 89/109/95
f 80/103/96 79/102/96 86/113/96 87/111/96
f 90/116/97 89/117/97 96/118/97 97/119/97
f 88/120/98 87/121/98 94/122/98 95/123/98
f 86/124/99 85/125/99 92/126/99 93/127/99
f 84/128/100 54/129/100 91/130/100
f 76/131/101 90/116/101 97/119/101
f 89/117/102 88/120/102 95/123/102 96/118/102
f 87/121/103 86/124/103 93/127/103 94/122/103
f 85/125/104 84/128/104 91/130/104 92/126/104
f 91/130/105 54/132/105 98/133/105
f 76/134/106 97/119/106 104/135/106
f 96/118/107 95/123/107 102/136/107 103/137/107
f 94/122/108 93/127/108 100/138/108 101/139/108
f 92/126/109 91/130/109 98/133/109 99/140/109
f 97/119/110 96/118/110 103/137/110 104/135/110
f 95/123/111 94/122/111 101/139/111 102/136/111
f 93/127/112 92/126/112 99/140/112 100/138/112
f 103/137/113 102/136/113 109/141/113 110/142/113
f 101/139/114 100/138/114 107/143/114 108/144/114
f 99/140/115 98/133/115 105/145/115 106/146/115
f 104/135/116 103/137/116 110/142/116 111/147/116
f 102/136/117 101/139/117 108/144/117 109/141/117
f 100/138/118 99/140/118 106/146/118 107/143/118
f 98/133/119 54/148/119 105/145/119
f 76/149/120 104/135/120 111/147/120
f 111/147/121 110/142/121 114/10/121 4/9/121
f 109/141/122 108/144/122 113/1/122 3/13/122
f 107/143/123 106/146/123 1/5/123 2/2/123
f 105/145/124 54/150/124 112/6/124
f 76/151/125 111/147/125 4/9/125
f 110/142/126 109/141/126 3/13/126 114/10/126
f 108/144/127 107/143/127 2/2/127 113/1/127
f 106/146/128 105/145/128 112/6/128 1/5/128
